/* XPM */
static char *d66dd1648a454e0d9026ecf4b01237c3[] = {
/* columns rows colors chars-per-pixel */
"16 16 110 2 ",
"   c #8D1D1D",
".  c #8E1F1F",
"X  c #8F2222",
"o  c #932A2A",
"O  c #942C2C",
"+  c #962F2F",
"@  c #963030",
"#  c #973030",
"$  c #983434",
"%  c #993434",
"&  c #9D3C3C",
"*  c #BA2727",
"=  c #CD3C3C",
"-  c #A44A4A",
";  c #A64E4E",
":  c #AE5F5F",
">  c #BF5454",
",  c #B26767",
"<  c #B36767",
"1  c #B46B6B",
"2  c #B97575",
"3  c #CE4545",
"4  c #CA5353",
"5  c #C25C5C",
"6  c #DA5656",
"7  c #C46060",
"8  c #DC7D7D",
"9  c #E07373",
"0  c #BF8080",
"q  c #C08383",
"w  c #C38787",
"e  c #C48B8B",
"r  c #C99494",
"t  c #C99595",
"y  c #CA9797",
"u  c #DB9F9F",
"i  c #E68D8D",
"p  c #D5ABAB",
"a  c #D7B0B0",
"s  c #E3A0A0",
"d  c #E2A1A1",
"f  c #E3A4A4",
"g  c #E0A7A7",
"h  c #E4A5A6",
"j  c #E8A4A4",
"k  c #EBABAB",
"l  c #ECA9A9",
"z  c #EEAFAF",
"x  c #E2B2B2",
"c  c #E7B3B3",
"v  c #EDB4B4",
"b  c #EDB6B6",
"n  c #E4B9B9",
"m  c #E6BFBF",
"M  c #E9B8B8",
"N  c #EEBABA",
"B  c #EBBDBD",
"V  c #F0BEBE",
"C  c #EDC0C0",
"Z  c #E9C7C7",
"A  c #E6CFCF",
"S  c #EDCECE",
"D  c #F1C6C6",
"F  c #F2C8C8",
"G  c #E8D2D2",
"H  c #EED3D3",
"J  c #E9D4D4",
"K  c #EAD7D7",
"L  c #EFD4D4",
"P  c #F1D3D3",
"I  c #F0D7D7",
"U  c #F7D7D7",
"Y  c #F2DADA",
"T  c #F7DBDB",
"R  c #F2DEDE",
"E  c #F5DEDE",
"W  c #F6DEDE",
"Q  c #F8DFDF",
"!  c #F0E2E2",
"~  c #F5E1E1",
"^  c #F4E3E3",
"/  c #F6E5E5",
"(  c #F5E6E6",
")  c #F9E6E6",
"_  c #F9E7E7",
"`  c #F4E8E8",
"'  c #F4EAEA",
"]  c #F7EAEA",
"[  c #F7EBEB",
"{  c #F7ECEC",
"}  c #F7EFEF",
"|  c #FAEAEA",
" . c #FBECEC",
".. c #F9EFEF",
"X. c #FBEEEE",
"o. c #FAEFEF",
"O. c #F7F1F1",
"+. c #FCF3F3",
"@. c #FBF6F6",
"#. c #FBF7F7",
"$. c #FCF4F4",
"%. c #FDF4F4",
"&. c #FDF6F6",
"*. c #FCF9F9",
"=. c #FEFBFB",
"-. c #FFFDFD",
";. c #FFFEFE",
":. c #FEFFFF",
">. c gray100",
",. c None",
/* pixels */
",.,.,.,.,.& 2 t t 2 & ,.,.,.,.,.",
",.,.,.% a *.>.>.>.>.*.a % ,.,.,.",
",.,.- ' >.>.>.>.>.>.>.>.} - ,.,.",
",.@ ' >.>.{ Z m R >.{ n H ' @ ,.",
",.p >.>.>.#.5 5 | >.S 5 P >.p ,.",
"% #.>.>.>.>.4 c >.{ d $.>.>.#.% ",
", >.>.>.>.) = | $.j ) >.>.>.>., ",
"0 >.>.>.>.z 6 >.l ~ >.>.>.>.>.q ",
"0 >.>.>.>.9 i V T >.>.>.>.>.>.0 ",
": >.>.>.*.3 8 F { >.+. .+.+.>.: ",
"o { >.>.P * B b z N D v b U ~ O ",
",.t >.>.u x W M B s f W h >.t ,.",
",.X J >.' >.g ~ >./ I I { K . ,.",
",.,.O A >.>./ >.>.>.>.$.J # ,.,.",
",.,.,.. w ! >.>.>.>.! e . ,.,.,.",
",.,.,.,.,.X ; 1 1 ; X ,.,.,.,.,."
};
