/* XPM */
static char *eab333fa042e48308df674f0d5541e5a[] = {
/* columns rows colors chars-per-pixel */
"32 32 3 1 ",
"  c #91BCDE",
". c gray100",
"X c None",
/* pixels */
"XXX                          XXX",
"XX                             X",
"X                              X",
"                                ",
"                                ",
"                                ",
"         .....                  ",
"         .....                  ",
"         .....                  ",
"         .....                  ",
"        .....  ............     ",
"  ..... .....                   ",
"        ....                    ",
"       .....                    ",
"       ...............          ",
"       .....       ....         ",
"      .....        .....        ",
"                    ....        ",
"                    ....        ",
"                    ....        ",
"                    ....        ",
"                    ....        ",
"                   .....        ",
"                  .....         ",
"                .....           ",
"                                ",
"                                ",
"                                ",
"                                ",
"X                               ",
"X                              X",
"XXX                           XX"
};
