/* XPM */
static char *c7c7dd26aca747d2a064ae4a4fa3aece[] = {
/* columns rows colors chars-per-pixel */
"64 64 3 1 ",
"  c #91BCDE",
". c gray100",
"X c None",
/* pixels */
"XXXXXXX                                                  XXXXXXX",
"XXXXX                                                      XXXXX",
"XXXX                                                         XXX",
"XXX                                                           XX",
"XX                                                            XX",
"XX                                                             X",
"X                                                               ",
"X                                                               ",
"X                                                               ",
"                                                                ",
"                                                                ",
"                                                                ",
"                   .........                                    ",
"                   .........                                    ",
"                   .........                                    ",
"                   .........                                    ",
"                   .........                                    ",
"                  ..........                                    ",
"                  .........                                     ",
"                  .........                                     ",
"                 .........                                      ",
"         .............................................          ",
"     ....................                                       ",
"                .........                                       ",
"                ........                                        ",
"               .........                                        ",
"               .........                                        ",
"              ..........                                        ",
"              .........                                         ",
"              ...............................                   ",
"              ..............         ..........                 ",
"             ...........              .........                 ",
"             .........                 .........                ",
"            ..........                 .........                ",
"            .........                  .........                ",
"                                       .........                ",
"                                       .........                ",
"                                       .........                ",
"                                       .........                ",
"                                       .........                ",
"                                       .........                ",
"                                       .........                ",
"                                       .........                ",
"                                       .........                ",
"                                       .........                ",
"                                       ........                 ",
"                                    ..........                  ",
"                                   ..........                   ",
"                                 .........                      ",
"             ...........................                        ",
"                                                                ",
"                                                                ",
"                                                                ",
"                                                                ",
"                                                                ",
"                                                                ",
"X                                                               ",
"X                                                               ",
"X                                                              X",
"XX                                                             X",
"XXX                                                           XX",
"XXX                                                          XXX",
"XXXXX                                                       XXXX",
"XXXXXX                                                    XXXXXX"
};
