/* XPM */
static char *bed788fa502c499bdcfd2a7eabf254af[] = {
/* columns rows colors chars-per-pixel */
"128 128 3 1 ",
"  c #91BCDE",
". c gray100",
"X c None",
/* pixels */
"XXXXXXXXXXXXXX                                                                                                   XXXXXXXXXXXXXXX",
"XXXXXXXXXXXX                                                                                                        XXXXXXXXXXXX",
"XXXXXXXXXX                                                                                                            XXXXXXXXXX",
"XXXXXXXXX                                                                                                               XXXXXXXX",
"XXXXXXX                                                                                                                  XXXXXXX",
"XXXXXX                                                                                                                    XXXXXX",
"XXXXX                                                                                                                      XXXXX",
"XXXXX                                                                                                                       XXXX",
"XXXX                                                                                                                        XXXX",
"XXX                                                                                                                          XXX",
"XXX                                                                                                                           XX",
"XX                                                                                                                            XX",
"XX                                                                                                                             X",
"X                                                                                                                              X",
"X                                                                                                                              X",
"X                                                                                                                              X",
"X                                                                                                                               ",
"                                                                                                                                ",
"                                                                                                                                ",
"                                                                                                                                ",
"                                                                                                                                ",
"                                                                                                                                ",
"                                                                                                                                ",
"                                                                                                                                ",
"                                      ..................                                                                        ",
"                                     ..................                                                                         ",
"                                     ..................                                                                         ",
"                                     ..................                                                                         ",
"                                     ..................                                                                         ",
"                                     ..................                                                                         ",
"                                     ..................                                                                         ",
"                                     ..................                                                                         ",
"                                     ..................                                                                         ",
"                                     ..................                                                                         ",
"                                    ...................                                                                         ",
"                                    ..................                                                                          ",
"                                    ..................                                                                          ",
"                                    ..................                                                                          ",
"                                   ...................                                                                          ",
"                                  ..................                                                                            ",
"                                  ..................                                                                            ",
"                                 ...................      .................................................                     ",
"                 ..........................................................................................                     ",
"              ........................................................                                                          ",
"         ...................... ..................                                                                              ",
"         ....................   ..................                                                                              ",
"                               ...................                                                                              ",
"                               ..................                                                                               ",
"                               .................                                                                                ",
"                              ..................                                                                                ",
"                              ..................                                                                                ",
"                             ...................                                                                                ",
"                             ..................                                                                                 ",
"                             ..................                                                                                 ",
"                            ...................                                                                                 ",
"                            ..................                                                                                  ",
"                            ..................                                                                                  ",
"                            ............................................................                                        ",
"                           ...............................................................                                      ",
"                           ...............................               ...................                                    ",
"                           .............................                  ...................                                   ",
"                           ......................                          ..................                                   ",
"                          ......................                            ..................                                  ",
"                          ...................                               ..................                                  ",
"                         ...................                                 ..................                                 ",
"                         ...................                                 ..................                                 ",
"                        ...................                                  ..................                                 ",
"                        ...................                                   ..................                                ",
"                        ..................                                    ..................                                ",
"                                                                              ..................                                ",
"                                                                              ..................                                ",
"                                                                              ..................                                ",
"                                                                              ..................                                ",
"                                                                              ..................                                ",
"                                                                              ..................                                ",
"                                                                              ..................                                ",
"                                                                              ..................                                ",
"                                                                              ..................                                ",
"                                                                              ..................                                ",
"                                                                              ..................                                ",
"                                                                              ..................                                ",
"                                                                              ..................                                ",
"                                                                              ..................                                ",
"                                                                              ..................                                ",
"                                                                              ..................                                ",
"                                                                              ..................                                ",
"                                                                              ..................                                ",
"                                                                              ..................                                ",
"                                                                              ..................                                ",
"                                                                             ...................                                ",
"                                                                             .................                                  ",
"                                                                           ..................                                   ",
"                                                                        ....................                                    ",
"                                                                       ...................                                      ",
"                                                                      ...................                                       ",
"                                                                   ...................                                          ",
"                                                                 ...................                                            ",
"                                                               ...................                                              ",
"                         .......................................................                                                ",
"                           .................................................                                                    ",
"                                                                                                                                ",
"                                                                                                                                ",
"                                                                                                                                ",
"                                                                                                                                ",
"                                                                                                                                ",
"                                                                                                                                ",
"                                                                                                                                ",
"                                                                                                                                ",
"                                                                                                                                ",
"                                                                                                                                ",
"                                                                                                                                ",
"X                                                                                                                               ",
"X                                                                                                                              X",
"X                                                                                                                              X",
"X                                                                                                                              X",
"XX                                                                                                                             X",
"XX                                                                                                                            XX",
"XXX                                                                                                                           XX",
"XXX                                                                                                                          XXX",
"XXXX                                                                                                                        XXXX",
"XXXXX                                                                                                                       XXXX",
"XXXXX                                                                                                                      XXXXX",
"XXXXXX                                                                                                                    XXXXXX",
"XXXXXXX                                                                                                                  XXXXXXX",
"XXXXXXXXX                                                                                                               XXXXXXXX",
"XXXXXXXXXX                                                                                                            XXXXXXXXXX",
"XXXXXXXXXXXX                                                                                                        XXXXXXXXXXXX",
"XXXXXXXXXXXXXX                                                                                                   XXXXXXXXXXXXXXX"
};
