/* XPM */
static char *e383e32433f54f55c86efb66a0927cd5[] = {
/* columns rows colors chars-per-pixel */
"16 16 3 1 ",
"  c #91BCDE",
". c gray100",
"X c None",
/* pixels */
"X              X",
"                ",
"                ",
"     ..         ",
"     ..         ",
"  .......       ",
"    ..          ",
"   ....  ...    ",
"   ..     ..    ",
"          ..    ",
"          ..    ",
"         ...    ",
"   .......      ",
"                ",
"                ",
"X              X"
};
