/* XPM */
static char *_85400fd6c28407fac8054a8a758cc3f[] = {
/* columns rows colors chars-per-pixel */
"64 64 140 2 ",
"   c #840B0B",
".  c #9F0000",
"X  c #871111",
"o  c #8A1616",
"O  c #8C1A1A",
"+  c #A00606",
"@  c #AD0202",
"#  c #A40E0E",
"$  c #AB0B0B",
"%  c #B30B0B",
"&  c #BA0A0A",
"*  c #A51313",
"=  c #AC1414",
"-  c #A61919",
";  c #AC1C1C",
":  c #B31414",
">  c #BC1515",
",  c #B41C1C",
"<  c #BC1C1C",
"1  c #8F2222",
"2  c #912525",
"3  c #942B2B",
"4  c #973131",
"5  c #993535",
"6  c #9C3C3C",
"7  c #A92323",
"8  c #AD2728",
"9  c #AC2C2C",
"0  c #BC2222",
"q  c #BD2728",
"w  c #B72D2D",
"e  c #AE3232",
"r  c #B23232",
"t  c #BB3737",
"y  c #B23A3A",
"u  c #C40B0B",
"i  c #CA0C0C",
"p  c #C31515",
"a  c #CA1515",
"s  c #C51C1C",
"d  c #CB1C1C",
"f  c #C32222",
"g  c #CC2222",
"h  c #C32B2B",
"j  c #CC2C2C",
"k  c #D02424",
"l  c #C03232",
"z  c #CA3333",
"x  c #CD3A3A",
"c  c #D13030",
"v  c #D33D3D",
"b  c #9F4141",
"n  c #A14444",
"m  c #A44B4B",
"M  c #B54545",
"N  c #BD4343",
"B  c #BB4C4C",
"V  c #A95454",
"C  c #AD5C5C",
"Z  c #BE5555",
"A  c #BE5959",
"S  c #B16363",
"D  c #B76F6F",
"F  c #B97474",
"G  c #BD7C7C",
"H  c #C34141",
"J  c #C94545",
"K  c #CD4B4B",
"L  c #D34444",
"P  c #D44B4B",
"I  c #C65656",
"U  c #CE5353",
"Y  c #C25858",
"T  c #C95A5A",
"R  c #D45252",
"E  c #D55D5D",
"W  c #DA5D5D",
"Q  c #C46464",
"!  c #CC6262",
"~  c #CE6969",
"^  c #D36565",
"/  c #DB6464",
"(  c #DD6A6A",
")  c #CC7677",
"_  c #D27474",
"`  c #DD7474",
"'  c #DC7D7D",
"]  c #E17575",
"[  c #C28585",
"{  c #CE8484",
"}  c #C48A8A",
"|  c #D48383",
" . c #DA8585",
".. c #D48B8B",
"X. c #DD8C8C",
"o. c #C79090",
"O. c #CA9595",
"+. c #CD9C9C",
"@. c #DD9393",
"#. c #DC9B9B",
"$. c #E38383",
"%. c #E38D8D",
"&. c #E49292",
"*. c #E39D9D",
"=. c #D0A2A2",
"-. c #DDA0A0",
";. c #D5ACAC",
":. c #DEAAAA",
">. c #D9B3B3",
",. c #DEBEBE",
"<. c #E3A5A5",
"1. c #EAA5A5",
"2. c #E4ACAC",
"3. c #ECABAB",
"4. c #E4B4B4",
"5. c #EEB4B4",
"6. c #EDBABA",
"7. c #F0B7B7",
"8. c #F0B9B9",
"9. c #DFC0C0",
"0. c #E1C4C4",
"q. c #EDC4C4",
"w. c #E5CCCC",
"e. c #ECCACA",
"r. c #F1C5C5",
"t. c #F4CCCC",
"y. c #E7D0D0",
"u. c #EAD5D5",
"i. c #EEDEDE",
"p. c #F3D2D2",
"a. c #F4DDDD",
"s. c #F8DDDD",
"d. c #EFE0E0",
"f. c #F4E3E3",
"g. c #F9E5E5",
"h. c #F6EBEB",
"j. c #F9EDED",
"k. c #FBF4F4",
"l. c #FFFFFF",
"z. c None",
/* pixels */
"z.z.z.z.z.z.z.z.z.z.z.z.z.z.z.z.z.z.z.z.z.z.z.z.z.o o o X           X X o o o z.z.z.z.z.z.z.z.z.z.z.z.z.z.z.z.z.z.z.z.z.z.z.z.z.",
"z.z.z.z.z.z.z.z.z.z.z.z.z.z.z.z.z.z.z.z.z.z.o X       O 4 b V V V m b 4 O X     X o z.z.z.z.z.z.z.z.z.z.z.z.z.z.z.z.z.z.z.z.z.z.",
"z.z.z.z.z.z.z.z.z.z.z.z.z.z.z.z.z.z.z.o X     4 C O.0.d.j.l.l.l.l.l.l.j.i.9.O.C 4     o o z.z.z.z.z.z.z.z.z.z.z.z.z.z.z.z.z.z.z.",
"z.z.z.z.z.z.z.z.z.z.z.z.z.z.z.z.z.o X   1 S >.j.l.l.l.l.l.l.l.l.l.l.l.l.l.l.l.l.h.>.S 1   X o z.z.z.z.z.z.z.z.z.z.z.z.z.z.z.z.z.",
"z.z.z.z.z.z.z.z.z.z.z.z.z.z.z.o o   3 [ d.l.l.l.l.l.l.l.l.l.l.l.l.l.l.l.l.l.l.l.l.l.l.d.[ 3   o o z.z.z.z.z.z.z.z.z.z.z.z.z.z.z.",
"z.z.z.z.z.z.z.z.z.z.z.z.z.z.o   O } h.l.l.l.l.l.l.l.l.l.l.l.l.l.l.l.l.l.l.l.l.l.l.l.l.l.l.h.[ O   o z.z.z.z.z.z.z.z.z.z.z.z.z.z.",
"z.z.z.z.z.z.z.z.z.z.z.z.O X   C u.l.l.l.l.l.l.l.l.l.l.l.l.l.l.l.l.l.l.l.l.l.l.l.l.l.l.l.l.l.l.u.C   X O z.z.z.z.z.z.z.z.z.z.z.z.",
"z.z.z.z.z.z.z.z.z.z.z.O   O +.l.l.l.l.l.l.l.l.l.l.l.l.l.l.l.l.l.l.l.l.l.l.l.l.l.l.l.l.l.l.l.l.l.l.+.O   O z.z.z.z.z.z.z.z.z.z.z.",
"z.z.z.z.z.z.z.z.z.z.o   4 w.l.l.l.l.l.l.l.l.l.l.l.l.l.l.l.l.l.l.l.l.l.l.l.l.l.l.l.l.l.l.l.l.l.l.l.l.w.4   o z.z.z.z.z.z.z.z.z.z.",
"z.z.z.z.z.z.z.z.z.o   n d.l.l.l.l.l.l.l.l.l.l.l.l.l.l.l.l.l.l.l.l.l.l.l.l.l.l.l.l.l.l.l.l.l.l.l.l.l.l.d.n   o z.z.z.z.z.z.z.z.z.",
"z.z.z.z.z.z.z.z.O   n h.l.l.l.l.l.l.l.l.l.l.l.l.l.l.l.l.l.l.l.l.l.l.l.l.l.l.l.l.l.l.l.l.l.l.l.l.l.l.l.l.h.n   o z.z.z.z.z.z.z.z.",
"z.z.z.z.z.z.z.O   6 h.l.l.l.l.l.l.l.l.l.l.l.l.l.l.l.l.l.l.l.l.l.l.l.l.l.l.l.l.l.l.l.l.l.l.l.l.l.l.l.l.l.l.h.6   O z.z.z.z.z.z.z.",
"z.z.z.z.z.z.z.X 3 i.l.l.l.l.l.l.l.l.l.l.l.l.l.l.l.l.l.l.l.l.l.l.l.l.l.l.l.l.l.l.l.l.l.l.l.l.l.l.l.l.l.l.l.l.i.3   o z.z.z.z.z.z.",
"z.z.z.z.z.z.o X ,.l.l.l.l.l.l.l.l.l.l.l.l.l.l.l.l.l.l.l.l.l.l.l.l.l.l.l.l.l.l.l.l.l.l.l.l.l.l.l.l.l.l.l.l.l.l.,.o o z.z.z.z.z.z.",
"z.z.z.z.z.O   } l.l.l.l.l.l.l.l.l.l.l.l.l.l.h.h.h.h.h.j.j.j.j.j.j.h.f.k.l.l.l.l.l.l.j.j.j.j.j.j.j.j.h.f.k.l.l.l.}   O z.z.z.z.z.",
"z.z.z.z.z.  b k.l.l.l.l.l.l.l.l.l.l.l.l.l.k.{ B e 7 e 9 9 9 9 ; 9 y Z y.l.l.l.l.l.k.A 7 9 9 9 9 9 7 e A j.l.l.l.k.b   o z.z.z.z.",
"z.z.z.z.o X 0.l.l.l.l.l.l.l.l.l.l.l.l.l.l.l.l.k.i.Z # - - - # Q y.h.l.l.l.l.l.l.l.l.j.4.; - - # 7 ..i.k.l.l.l.l.l.0.X o z.z.z.z.",
"z.z.z.o   S l.l.l.l.l.l.l.l.l.l.l.l.l.l.l.l.l.l.l.p.- - - = Z l.l.l.l.l.l.l.l.l.l.l.l.l.B # # Q g.l.l.l.l.l.l.l.l.l.S   o z.z.z.",
"z.z.z.o o u.l.l.l.l.l.l.l.l.l.l.l.l.l.l.l.l.l.l.l.u., ; ; = q.l.l.l.l.l.l.l.l.l.l.l.l.e.- = { l.l.l.l.l.l.l.l.l.l.l.u.o o z.z.z.",
"z.z.z.  S l.l.l.l.l.l.l.l.l.l.l.l.l.l.l.l.l.l.l.l.2.= 7 = N l.l.l.l.l.l.l.l.l.l.l.l.k.N $ <.l.l.l.l.l.l.l.l.l.l.l.l.l.S   O z.z.",
"z.z.O   ,.l.l.l.l.l.l.l.l.l.l.l.l.l.l.l.l.l.l.l.l._ = , = ) l.l.l.l.l.l.l.l.l.l.l.l._ @ <.l.l.l.l.l.l.l.l.l.l.l.l.l.l.9.  O z.z.",
"z.z.  5 k.l.l.l.l.l.l.l.l.l.l.l.l.l.l.l.l.l.l.l.k.H : 0 : 6.l.l.l.l.l.l.l.l.l.l.l.| @ @.l.l.l.l.l.l.l.l.l.l.l.l.l.l.l.k.6   z.z.",
"z.O   [ l.l.l.l.l.l.l.l.l.l.l.l.l.l.l.l.l.l.l.l.p., < < q g.l.l.l.l.l.l.l.l.l.l.<.& _ l.l.l.l.l.l.l.l.l.l.l.l.l.l.l.l.l.[   o z.",
"z.o X 0.l.l.l.l.l.l.l.l.l.l.l.l.l.l.l.l.l.l.l.l.*.> 0 < U k.l.l.l.l.l.l.l.l.l.<.& _ l.l.l.l.l.l.l.l.l.l.l.l.l.l.l.l.l.l.0.X o z.",
"z.X 4 j.l.l.l.l.l.l.l.l.l.l.l.l.l.l.l.l.l.l.l.l.^ > f > %.l.l.l.l.l.l.l.l.l.q.& ^ l.l.l.l.l.l.l.l.l.l.l.l.l.l.l.l.l.l.l.j.4 X z.",
"z.  V l.l.l.l.l.l.l.l.l.l.l.l.l.l.l.l.l.l.l.l.j.z s s s r.l.l.l.l.l.l.l.l.p.f L j.l.l.l.l.l.l.l.l.l.l.l.l.l.l.l.l.l.l.l.l.V   o ",
"z.  G l.l.l.l.l.l.l.l.l.l.l.l.l.l.l.l.l.l.l.l.8.s f s x k.l.l.l.l.l.l.l.p.g L j.l.l.l.l.l.l.l.l.l.l.l.l.l.l.l.l.l.l.l.l.l.G   o ",
"o   =.l.l.l.l.l.l.l.l.l.l.l.l.l.l.l.l.l.l.l.l.$.a g a ( l.l.l.l.l.l.l.j.z j j.l.l.l.l.l.l.l.l.l.l.l.l.l.l.l.l.l.l.l.l.l.l.=.  o ",
"o   ,.l.l.l.l.l.l.l.l.l.l.l.l.l.l.l.l.l.l.l.l.R d g a 3.l.l.l.l.l.l.j.L g t.l.l.l.l.l.l.l.l.l.l.l.l.l.l.l.l.l.l.l.l.l.l.l.,.  O ",
"o o w.l.l.l.l.l.l.l.l.l.l.l.l.l.l.l.l.l.l.l.g.k g g k g.l.l.l.l.l.k.P k p.l.l.l.l.l.l.l.l.l.l.l.l.l.l.l.l.l.l.l.l.l.l.l.l.w.X o ",
"o O u.l.l.l.l.l.l.l.l.l.l.l.l.l.l.l.l.l.l.l.3.a k d P k.l.l.l.l.l.] i 5.l.l.l.l.l.l.l.l.l.l.l.l.l.l.l.l.l.l.l.l.l.l.l.l.l.u.O o ",
"o O u.l.l.l.l.l.l.l.l.l.l.l.l.l.l.l.l.l.l.l.( a k a $.l.l.l.l.l.] i 3.l.l.l.l.l.l.l.l.l.l.l.l.l.l.l.l.l.l.l.l.l.l.l.l.l.l.i.O X ",
"o O u.l.l.l.l.l.l.l.l.l.l.l.l.l.l.l.l.l.l.k.v d k a 8.l.l.l.l.$.i 1.l.l.l.l.l.l.l.l.l.l.l.l.l.l.l.l.l.l.l.l.l.l.l.l.l.l.l.u.O o ",
"o o w.l.l.l.l.l.l.l.l.l.l.l.l.l.l.l.l.l.l.t.k k k j h.l.l.l.1.i $.l.l.l.l.l.l.l.l.l.l.l.l.l.l.l.l.l.l.l.l.l.l.l.l.l.l.l.l.y.o o ",
"o   0.l.l.l.l.l.l.l.l.l.l.l.l.l.l.l.l.l.l.&.p g a W l.l.l.1.i ` l.l.l.l.l.l.l.l.l.l.l.l.l.l.l.l.l.l.l.l.l.l.l.l.l.l.l.l.l.0.  O ",
"O   ;.l.l.l.l.l.l.l.l.l.l.l.l.l.l.l.l.l.l.W d g a &.l.l.r.u ` l.l.l.l.l.l.l.l.l.l.l.l.l.l.l.l.l.l.l.l.l.l.l.l.l.l.l.l.l.l.;.  o ",
"o   [ l.l.l.l.l.l.l.l.l.l.l.l.l.l.l.l.l.h.c d g d t.l.p.g P k.l.l.l.l.l.l.l.l.l.l.l.l.l.l.l.l.l.l.l.l.l.l.l.l.l.l.l.l.l.l.[   o ",
"z.  C l.l.l.l.l.l.l.l.l.l.l.l.l.l.l.l.l.6.p f s v l.p.f L j.l.l.l.l.l.l.l.l.l.l.l.l.l.l.l.l.l.l.l.l.l.l.l.l.l.l.l.l.l.l.l.C   o ",
"z.X 5 k.l.l.l.l.l.l.l.l.l.l.l.l.l.l.l.l.` p s p ' k.z z j.l.l.l.l.l.l.l.l.l.l.l.l.l.l.l.l.l.l.l.l.l.l.l.l.l.l.l.l.l.l.l.k.5 X z.",
"z.o O u.l.l.l.l.l.l.l.l.l.l.l.l.l.l.l.k.J < < < <.U f p.j.g.r.t.l.t.&.t.l.l.l.l.l.j.6.3.k.p.r.k.h.t.p.l.l.l.p.t.l.l.l.l.u.o o z.",
"z.o   O.l.l.l.l.l.l.l.l.l.l.l.l.l.l.l.i.f < 0 0 h 0 p.l.5.( i &.3.&.L a t.l.l.l.5.( 5.6.%.d 1.s.$.d R l.l.l.L j k.l.l.l.O.  o z.",
"z.z.  m l.l.l.l.l.l.l.l.l.l.l.l.l.l.l.*.: < , < < y.l.l.l.` g 1.g.l.t.u %.l.l.*.P g.l.l.L v k.l.l.R R l.l.l.1.W l.l.l.l.m   o z.",
"z.z.o o y.l.l.l.l.l.l.l.l.l.l.l.l.l.l.! = 0 , , <.l.l.l.g.s E k.l.l.3.u 6.l.1.j g.l.l.a.p 1.l.l.l.R P l.l.l.1.q.l.l.l.y.o o z.z.",
"z.z.o   G l.l.l.l.l.l.l.l.l.l.l.l.l.j.w , , = <.l.l.l.l.X.s g.l.l.l.E h k.g.f 3.l.l.l.%.f j.l.l.l.K E l.l.q.<.l.l.l.l.G   O z.z.",
"z.z.z.X 2 f.l.l.l.l.l.l.l.l.l.l.l.l.e.= ; $ ..l.l.l.l.j.f X.l.l.l.p.> *.l.U K l.l.l.s.< %.l.l.l.k.h %.l.f.&.k.l.l.l.h.1 X z.z.z.",
"z.z.z.O   [ l.l.l.l.l.l.l.l.l.l.l.l.| * # ) l.l.l.l.l.X.0 j.l.l.l.J U l.a.> 2.l.l.h.K q k.l.l.l.j.0 @.h.X.k.l.l.l.l.[   o z.z.z.",
"z.z.z.z.o O d.l.l.l.l.l.l.l.l.l.l.l.B . ) l.l.l.l.l.k.l X.l.l.l.~ H j.l.*.% p.l.a.#.<  .p.a.l.l.h.q X. .a.l.l.l.l.i.O o o z.z.z.",
"z.z.z.z.o   S l.l.l.l.l.l.l.l.l.l.f.- B k.l.l.l.l.l.2.@ 2.l.i.~ T j.l.l.@.@ T | *.<.@ | #.j.l.l.e.: _ g.l.l.l.l.l.S   O z.z.z.z.",
"z.z.z.z.z.o   ;.l.l.l.l.l.l.l.l.l.:.M j.l.l.l.l.l.k.t T | X.@.4.l.l.l.l.j._ I 4.l.4.I 4.l.l.l.l.6.N f.l.l.l.l.l.;.  o z.z.z.z.z.",
"z.z.z.z.z.z.X 2 i.l.l.l.l.l.l.l.l.j.k.l.l.l.l.l.l.2.= d.l.l.l.l.l.l.l.l.l.l.l.l.l.l.l.l.l.l.l.j.-.h.l.l.l.l.l.i.2 o o z.z.z.z.z.",
"z.z.z.z.z.z.O   m j.l.l.l.l.l.l.l.l.l.l.l.l.l.l.l.B Y l.l.l.l.l.l.l.l.l.l.l.l.l.l.l.l.l.k.l.d.{ g.l.l.l.l.l.k.n   O z.z.z.z.z.z.",
"z.z.z.z.z.z.z.o   S l.l.l.l.l.l.l.l.l.l.l.l.l.l.4.. 4.l.l.l.l.l.l.l.l.l.l.l.l.l.l.l.l.e.r ..#.j.l.l.l.l.l.l.S   o z.z.z.z.z.z.z.",
"z.z.z.z.z.z.z.z.o   F l.l.l.l.l.l.l.l.l.l.l.k.:.Q B #.d.l.l.l.l.l.l.l.l.l.l.l.l.l.l.l.4.M #.k.l.l.l.l.l.l.F   o z.z.z.z.z.z.z.z.",
"z.z.z.z.z.z.z.z.z.X   D l.l.l.l.l.l.l.l.l.l.l.k.l.l.l.l.l.l.l.l.l.l.l.l.l.l.l.l.l.l.l.l.l.l.l.l.l.l.l.k.D   o o z.z.z.z.z.z.z.z.",
"z.z.z.z.z.z.z.z.z.z.o   C h.l.l.l.l.l.l.l.l.l.l.l.l.l.l.l.l.l.l.l.l.l.l.l.l.l.l.l.l.l.l.l.l.l.l.l.l.h.C   o o z.z.z.z.z.z.z.z.z.",
"z.z.z.z.z.z.z.z.z.z.z.o   6 w.l.l.l.l.l.l.l.l.l.l.l.l.l.l.l.l.l.l.l.l.l.l.l.l.l.l.l.l.l.l.l.l.l.l.w.6   o o z.z.z.z.z.z.z.z.z.z.",
"z.z.z.z.z.z.z.z.z.z.z.z.o   O o.k.l.l.l.l.l.l.l.l.l.l.l.l.l.l.l.l.l.l.l.l.l.l.l.l.l.l.l.l.l.l.k.O.O   O z.z.z.z.z.z.z.z.z.z.z.z.",
"z.z.z.z.z.z.z.z.z.z.z.z.z.O X   b ,.l.l.l.l.l.l.l.l.l.l.l.l.l.l.l.l.l.l.l.l.l.l.l.l.l.l.l.l.,.b   X o z.z.z.z.z.z.z.z.z.z.z.z.z.",
"z.z.z.z.z.z.z.z.z.z.z.z.z.z.z.o   X V ,.l.l.l.l.l.l.l.l.l.l.l.l.l.l.l.l.l.l.l.l.l.l.l.l.,.V X   o o z.z.z.z.z.z.z.z.z.z.z.z.z.z.",
"z.z.z.z.z.z.z.z.z.z.z.z.z.z.z.z.O o   X m +.d.l.l.l.l.l.l.l.l.l.l.l.l.l.l.l.l.l.l.d.+.m X   o O z.z.z.z.z.z.z.z.z.z.z.z.z.z.z.z.",
"z.z.z.z.z.z.z.z.z.z.z.z.z.z.z.z.z.z.O o     1 C O.w.h.l.l.l.l.l.l.l.l.l.l.h.w.+.C 1     o o z.z.z.z.z.z.z.z.z.z.z.z.z.z.z.z.z.z.",
"z.z.z.z.z.z.z.z.z.z.z.z.z.z.z.z.z.z.z.z.o o X     X 3 n C F [ } } [ F C n 2 X     X o o z.z.z.z.z.z.z.z.z.z.z.z.z.z.z.z.z.z.z.z.",
"z.z.z.z.z.z.z.z.z.z.z.z.z.z.z.z.z.z.z.z.z.z.z.o O o X                     X o o O z.z.z.z.z.z.z.z.z.z.z.z.z.z.z.z.z.z.z.z.z.z.z.",
"z.z.z.z.z.z.z.z.z.z.z.z.z.z.z.z.z.z.z.z.z.z.z.z.z.z.z.z.o o o o o o o O z.z.z.z.z.z.z.z.z.z.z.z.z.z.z.z.z.z.z.z.z.z.z.z.z.z.z.z."
};
