/* XPM */
static char *_07fce8252014db5f4a25f2bff203efa[] = {
/* columns rows colors chars-per-pixel */
"32 32 105 2 ",
"   c #840B0B",
".  c #9F0202",
"X  c #871010",
"o  c #891414",
"O  c #8D1C1C",
"+  c #AC0606",
"@  c #A30E0E",
"#  c #AE0808",
"$  c #B50606",
"%  c #A71616",
"&  c #AC1C1C",
"*  c #B71313",
"=  c #8F2121",
"-  c #912424",
";  c #952D2D",
":  c #973131",
">  c #983333",
",  c #9C3A3A",
"<  c #B22727",
"1  c #BB2121",
"2  c #B43A3A",
"3  c #C20808",
"4  c #CA0D0D",
"5  c #C61717",
"6  c #C81010",
"7  c #C11A1A",
"8  c #D12727",
"9  c #D22D2D",
"0  c #CA3B3B",
"q  c #D03F3F",
"w  c #A14444",
"e  c #A34848",
"r  c #BB4040",
"t  c #A95454",
"y  c #AF5F5F",
"u  c #AF6060",
"i  c #B26666",
"p  c #B46A6A",
"a  c #B77070",
"s  c #BB7777",
"d  c #BD7C7C",
"f  c #C04242",
"g  c #CC4545",
"h  c #C54B4B",
"j  c #CD5757",
"k  c #C45A5A",
"l  c #CC5F5F",
"z  c #D75151",
"x  c #D35858",
"c  c #D95C5C",
"v  c #C56666",
"b  c #CC6969",
"n  c #D96363",
"m  c #D56B6B",
"M  c #DE6C6C",
"N  c #CD7777",
"B  c #DC7272",
"V  c #D67B7B",
"C  c #DC7D7D",
"Z  c #E07575",
"A  c #E17A7A",
"S  c #C28484",
"D  c #CE8383",
"F  c #D08686",
"G  c #DE8181",
"H  c #D28B8B",
"J  c #DB8A8A",
"K  c #C99494",
"L  c #CD9C9C",
"P  c #D79797",
"I  c #DE9191",
"U  c #E48585",
"Y  c #E59494",
"T  c #E89393",
"R  c #E29A9A",
"E  c #D2A5A5",
"W  c #DCA4A4",
"Q  c #DFABAB",
"!  c #D7B0B0",
"~  c #D9B3B3",
"^  c #DCB8B8",
"/  c #E3A2A2",
"(  c #EBA6A6",
")  c #E4AAAA",
"_  c #E9A9A9",
"`  c #E4B4B4",
"'  c #ECB4B4",
"]  c #E5B8B8",
"[  c #EDBCBC",
"{  c #E1C4C4",
"}  c #EFC4C4",
"|  c #E6CDCD",
" . c #ECCACA",
".. c #F2CBCB",
"X. c #EBD3D3",
"o. c #EEDDDD",
"O. c #F3D2D2",
"+. c #F4DBDB",
"@. c #F3E2E2",
"#. c #F9E4E4",
"$. c #F6EBEB",
"%. c #FAEBEB",
"&. c #FBF3F3",
"*. c #FFFFFF",
"=. c None",
/* pixels */
"=.=.=.=.=.=.=.=.=.=.=.=.X O > , , > O X =.=.=.=.=.=.=.=.=.=.=.=.",
"=.=.=.=.=.=.=.=.=.  > d ^ o.&.&.*.&.o.~ s >   =.=.=.=.=.=.=.=.=.",
"=.=.=.=.=.=.=.  , E &.*.*.*.*.*.*.*.*.*.*.&.E ,   =.=.=.=.=.=.=.",
"=.=.=.=.=.=.X S &.*.*.*.*.*.*.*.*.*.*.*.*.*.*.&.S X =.=.=.=.=.=.",
"=.=.=.=.=.O ~ *.*.*.*.*.*.*.*.*.*.*.*.*.*.*.*.*.*.~ O =.=.=.=.=.",
"=.=.=.=.O { *.*.*.*.*.*.*.*.*.*.*.*.*.*.*.*.*.*.*.*.{ O =.=.=.=.",
"=.=.=.X ! *.*.*.*.*.*.*.*.*.*.*.*.*.*.*.*.*.*.*.*.*.*.! X =.=.=.",
"=.=.  s *.*.*.*.*.*.*.] H H H F P  .*.*.&.W H H F W &.*.s   =.=.",
"=.=.; $.*.*.*.*.*.*.*.$.) @ . v +.&.*.*.*.X.% % P @.*.*.$.; =.=.",
"=.  K *.*.*.*.*.*.*.*.*.@.& < &.*.*.*.*.*.] r +.*.*.*.*.*.K   =.",
"=.- $.*.*.*.*.*.*.*.*.*.) # l *.*.*.*.*.O.h @.*.*.*.*.*.*.$.- =.",
"=.y *.*.*.*.*.*.*.*.*.*.m $ R *.*.*.*.@.j ..*.*.*.*.*.*.*.*.u =.",
"  L *.*.*.*.*.*.*.*.*.&.0 7 O.*.*.*.%.x } *.*.*.*.*.*.*.*.*.L   ",
"X { *.*.*.*.*.*.*.*.*...5 q &.*.*.&.n ' *.*.*.*.*.*.*.*.*.*.{ X ",
"O o.*.*.*.*.*.*.*.*.*.T 4 Z *.*.&.M ( *.*.*.*.*.*.*.*.*.*.*.o.O ",
"= @.*.*.*.*.*.*.*.*.*.c 4 ' *.*.A T *.*.*.*.*.*.*.*.*.*.*.*.@.= ",
"= @.*.*.*.*.*.*.*.*.%.9 8 #.*.U U *.*.*.*.*.*.*.*.*.*.*.*.*.@.= ",
"o X.*.*.*.*.*.*.*.*.[ 6 z *.Y A *.*.*.*.*.*.*.*.*.*.*.*.*.*.X.o ",
"X ^ *.*.*.*.*.*.*.*.A 3 R ' B *.*.*.*.*.*.*.*.*.*.*.*.*.*.*.^ X ",
"  S *.*.*.*.*.*.*.&.g 7 C m %.#.#.O.*.*.&.+.#.%.#.&.*.+.*.*.S   ",
"=.e *.*.*.*.*.*.*.+.1 * j &.( c O.c O.#.( O.c +.U ( *.A &.*.e =.",
"=.o X.*.*.*.*.*.*./ + r #.*.B [ *.n ..G &.O.C *./ _ &...*.| o =.",
"=.=.i *.*.*.*.*.*.k < +.*.O.C *.' Y R ' *.m ..*.Y ) O.&.*.p   =.",
"=.=.o | *.*.*.*.$.2 X.*.*.V ` ..J &.l W ) h +.*.V I &.*.| o =.=.",
"=.=.=.w &.*.*.*.@. .*.*.+.b  .X.*.*.X.[ @. .*.&.) &.*.&.e X =.=.",
"=.=.=.  a *.*.*.*.*.*.&.N ` *.*.*.*.*.*.*.&.Q  .&.*.*.a   =.=.=.",
"=.=.=.=.  d *.*.*.*.*.$.Q @.*.*.*.*.*.*.*.#.` &.*.*.d   =.=.=.=.",
"=.=.=.=.=.  i &.*.*.*.*.*.*.*.*.*.*.*.*.*.*.*.*.&.i   =.=.=.=.=.",
"=.=.=.=.=.=.  , ^ *.*.*.*.*.*.*.*.*.*.*.*.*.*.~ ,   =.=.=.=.=.=.",
"=.=.=.=.=.=.=.=.X t ~ &.*.*.*.*.*.*.*.*.&.! t X =.=.=.=.=.=.=.=.",
"=.=.=.=.=.=.=.=.=.=.X > i K ! { { ! K i > X X =.=.=.=.=.=.=.=.=.",
"=.=.=.=.=.=.=.=.=.=.=.=.=.      X X   =.=.=.=.=.=.=.=.=.=.=.=.=."
};
